<?xml version="1.0" encoding="utf-8"?>
<!-- Generator: Adobe Illustrator 16.0.0, SVG Export Plug-In . SVG Version: 6.00 Build 0)  -->
<!DOCTYPE svg PUBLIC "-//W3C//DTD SVG 1.1//EN" "http://www.w3.org/Graphics/SVG/1.1/DTD/svg11.dtd">
<svg version="1.1" id="Layer_1" xmlns="http://www.w3.org/2000/svg" xmlns:xlink="http://www.w3.org/1999/xlink" x="0px" y="0px"
	 width="916px" height="104px" viewBox="0 0 916 104" enable-background="new 0 0 916 104" xml:space="preserve">
<g>
	<g>
		<path fill="#FFFFFF" d="M206.204,58.177c2.836,0.528,5.567-1.255,6.25-4.019l0,0l0,0c0.027-0.103,0.049-0.208,0.071-0.312
			c0.134-0.73,0.321-1.606,0.437-2.533c2.368-11.219,8.593-18.699,19.074-18.699c11.172,0,17.509,8.494,19.492,20.96
			c0.016,0.138,0.037,0.274,0.062,0.411c0.579,2.922,3.387,4.819,6.306,4.242c2.808-0.555,4.726-3.188,4.348-5.99l0,0l0,0
			c-0.003-0.037-0.011-0.074-0.017-0.112c-0.01-0.071-0.021-0.142-0.035-0.212c0,0,0,0,0,0.002c0-0.002,0-0.002,0-0.002
			c-0.008-0.037-0.016-0.07-0.025-0.104c0.01,0.033,0.018,0.066,0.025,0.102c-2.909-17.005-13.004-29.051-30.156-29.051
			c-17.013,0-27.08,11.852-30.082,28.637c0,0,0,0,0,0.002c-0.015,0.057-0.027,0.115-0.041,0.171c0,0.005-0.002,0.009-0.004,0.015
			c-0.01,0.059-0.023,0.116-0.035,0.172c-0.017,0.088-0.029,0.176-0.043,0.265c-0.012,0.084-0.019,0.168-0.025,0.252
			c0,0.005-0.002,0.007-0.004,0.014c0-0.003,0-0.003,0-0.003C201.562,55.129,203.44,57.659,206.204,58.177z"/>
		<polygon fill="#FFFFFF" points="262.192,51.913 262.192,51.911 262.192,51.913 		"/>
	</g>
	<g>
		<path fill="#FFFFFF" d="M257.868,67.341c-2.834-0.529-5.564,1.251-6.251,4.016l0,0l0,0c-0.024,0.104-0.048,0.208-0.067,0.314
			c-0.139,0.729-0.32,1.604-0.438,2.531c-2.365,11.22-8.593,18.699-19.073,18.699c-11.17,0-17.51-8.495-19.49-20.961
			c-0.02-0.135-0.037-0.273-0.063-0.41c-0.581-2.923-3.389-4.822-6.307-4.243c-2.808,0.556-4.724,3.188-4.349,5.993
			c0-0.002,0-0.002,0-0.002v0.002c0.006,0.037,0.01,0.075,0.018,0.113c0.011,0.068,0.021,0.139,0.037,0.21v-0.002
			c0,0,0,0.002,0,0.003c0.008,0.037,0.016,0.067,0.022,0.104c-0.007-0.036-0.015-0.066-0.022-0.104
			c2.908,17.008,13.002,29.051,30.154,29.051c17.014,0,27.081-11.852,30.081-28.638l0,0c0.015-0.058,0.028-0.115,0.041-0.171
			c0.002-0.007,0.002-0.01,0.004-0.016c0.013-0.059,0.024-0.114,0.036-0.17c0.014-0.089,0.029-0.179,0.041-0.268
			c0.01-0.082,0.021-0.168,0.029-0.252c0-0.003,0-0.007,0-0.012l0,0C262.509,70.386,260.633,67.856,257.868,67.341z"/>
		<polygon fill="#FFFFFF" points="201.884,73.604 201.884,73.604 201.884,73.604 		"/>
	</g>
	<path fill="#FFFFFF" d="M168.513,95.557c0,3.438-1.998,5.99-5.324,5.99c-3.552,0-5.329-2.553-5.329-5.99V47.728
		c0-2.941,2.386-5.328,5.329-5.328c2.938,0,5.324,2.387,5.324,5.328V95.557z"/>
	<path fill="#FFFFFF" d="M678.746,77.28c0,3.439-1.998,5.99-5.328,5.99c-3.55,0-5.325-2.551-5.325-5.99V48.034
		c0-2.942,2.386-5.326,5.325-5.326c2.941,0,5.328,2.384,5.328,5.326V77.28z"/>
	<path fill="#FFFFFF" d="M270.388,84.347c0-3.107,2.11-5.438,5.325-5.438c1.998,0,3.552,0.889,4.884,2.995
		c4.549,7.436,9.433,10.987,20.197,10.987c10.653,0,16.535-4.328,16.535-12.873c0-20.309-44.057-8.102-44.057-34.955
		c0-15.205,12.873-22.305,26.634-22.305c11.429,0,19.088,3.993,23.858,11.984c0.998,1.666,1.441,3.219,1.441,4.551
		c0,3.549-2.551,5.546-5.438,5.546c-1.996,0-3.661-0.997-4.77-3.217c-3.107-6.548-7.658-9.101-15.093-9.101
		c-9.21,0-15.979,3.553-15.979,12.541c0,15.535,44.054,6.324,44.054,34.734c0,15.312-13.428,22.857-27.188,22.857
		c-12.206,0-22.527-4.215-29.074-14.314C270.833,86.898,270.388,85.566,270.388,84.347z"/>
	<g>
		<path fill="#FFFFFF" d="M793.208,58.46c2.835,0.526,5.566-1.254,6.252-4.02v0.002c0-0.002,0-0.002,0-0.002
			c0.025-0.104,0.049-0.207,0.069-0.314c0.136-0.729,0.319-1.604,0.438-2.531c2.364-11.219,8.59-18.698,19.071-18.698
			c11.173,0,17.511,8.495,19.492,20.961c0.017,0.137,0.037,0.272,0.063,0.411c0.578,2.921,3.387,4.82,6.305,4.242
			c2.808-0.557,4.726-3.188,4.348-5.991l0,0l0,0c-0.003-0.038-0.011-0.075-0.016-0.112c-0.012-0.072-0.023-0.141-0.036-0.211
			c0,0,0,0,0,0.002c0-0.002,0-0.004-0.002-0.006c-0.005-0.034-0.016-0.067-0.022-0.102c0.007,0.034,0.018,0.067,0.022,0.102
			c-2.907-17.005-13.002-29.051-30.154-29.051c-17.015,0-27.081,11.852-30.081,28.641l0,0c-0.016,0.057-0.027,0.113-0.041,0.169
			c-0.002,0.006-0.002,0.011-0.002,0.015c-0.016,0.059-0.026,0.115-0.038,0.173c-0.015,0.087-0.028,0.176-0.04,0.265
			c-0.012,0.085-0.021,0.169-0.028,0.252c0,0.004-0.002,0.008-0.002,0.014l0,0C788.568,55.411,790.445,57.94,793.208,58.46z"/>
		<polygon fill="#FFFFFF" points="849.195,52.196 849.193,52.192 849.193,52.192 		"/>
	</g>
	<g>
		<path fill="#FFFFFF" d="M844.874,67.623c-2.835-0.53-5.566,1.253-6.252,4.017l0,0l0,0c-0.025,0.104-0.051,0.207-0.069,0.312
			c-0.138,0.729-0.32,1.604-0.438,2.532c-2.365,11.22-8.592,18.7-19.073,18.7c-11.173,0-17.509-8.495-19.491-20.961
			c-0.016-0.137-0.036-0.273-0.064-0.411c-0.578-2.924-3.387-4.819-6.303-4.24c-2.81,0.553-4.727,3.185-4.35,5.989l0,0l0,0
			c0.006,0.038,0.011,0.075,0.016,0.113c0.012,0.068,0.023,0.139,0.037,0.21v-0.001c0,0.001,0,0.003,0,0.003
			c0.007,0.034,0.017,0.069,0.023,0.103c-0.007-0.033-0.017-0.067-0.023-0.103c2.908,17.005,13.001,29.051,30.155,29.051
			c17.015,0,27.081-11.85,30.081-28.638l0,0c0.016-0.059,0.029-0.114,0.041-0.172c0.002-0.004,0.002-0.01,0.005-0.016
			c0.013-0.058,0.023-0.113,0.035-0.17c0.017-0.089,0.031-0.178,0.041-0.266c0.013-0.084,0.022-0.168,0.027-0.25
			c0.002-0.005,0.004-0.01,0.004-0.014l0,0C849.515,70.669,847.637,68.141,844.874,67.623z"/>
		<polygon fill="#FFFFFF" points="788.886,73.885 788.886,73.887 788.886,73.887 		"/>
	</g>
	<path fill="#FFFFFF" d="M857.39,84.628c0-3.106,2.109-5.438,5.328-5.438c1.996,0,3.551,0.887,4.884,2.997
		c4.548,7.435,9.432,10.985,20.196,10.985c10.653,0,16.534-4.328,16.534-12.873c0-20.307-44.056-8.101-44.056-34.953
		c0-15.203,12.871-22.306,26.633-22.306c11.43,0,19.087,3.995,23.859,11.983c0.998,1.664,1.442,3.219,1.442,4.551
		c0,3.551-2.553,5.549-5.437,5.549c-1.998,0-3.663-0.998-4.773-3.219c-3.107-6.549-7.657-9.1-15.092-9.1
		c-9.21,0-15.98,3.55-15.98,12.541c0,15.535,44.057,6.324,44.057,34.73c0,15.316-13.428,22.86-27.188,22.86
		c-12.207,0-22.527-4.215-29.075-14.314C857.835,87.181,857.39,85.849,857.39,84.628z"/>
	<path fill="#FFFFFF" d="M440.486,30.116c0-3.328,2.109-5.991,5.437-5.991c3.219,0,5.217,2.663,5.217,5.991v43.059
		c0,14.426,6.659,19.973,17.646,19.973c10.873,0,17.421-5.547,17.421-19.973V30.116c0-3.328,1.998-5.991,5.326-5.991
		c3.331,0,5.327,2.663,5.327,5.991v43.059c0,17.422-9.767,29.739-28.074,29.739c-18.422,0-28.299-12.317-28.299-29.408V30.116z
		 M463.456,15.136c-0.776,0.332-1.553,0.555-2.218,0.555c-2.774,0-4.66-2.44-4.66-4.993c0-1.665,0.887-3.331,2.995-4.437
		l13.539-6.883c1.109-0.555,2.108-0.776,2.994-0.776c2.775,0,4.772,2.22,4.772,4.661c0,1.442-0.554,3.217-2.441,4.217
		L463.456,15.136z"/>
	<path fill="#FFFFFF" d="M534.478,101.847c-2.7,0-4.885-2.188-4.885-4.885c0-2.698,2.185-4.887,4.885-4.887l10.102-0.037
		c7.99,0,11.318-4.66,11.318-11.984c0-7.101-3.218-12.65-12.096-12.65l-9.329-0.002c-2.695,0-4.88-2.185-4.88-4.881
		s2.185-4.882,4.88-4.882h5.89c7.99,0,11.65-4.772,11.65-11.543c0-6.769-3.66-12.206-11.65-12.206h-3.11l-2.752,0.05
		c-2.711,0-4.907-2.196-4.907-4.907c0-2.709,2.196-4.907,4.907-4.907h2.013h4.515c11.652,0,21.638,7.657,21.638,21.971
		c0,8.546-4.658,13.539-8.987,15.649c7.214,2.438,12.872,9.099,12.872,17.977c0,12.541-8.767,22.082-21.195,22.082L534.478,101.847z
		"/>
	<path fill="#FFFFFF" d="M746.552,23.015c9.543,0,16.755,1.997,24.302,9.654c1.442,1.443,1.998,2.996,1.998,4.328
		c0,2.996-2.774,5.438-5.549,5.438c-1.333,0-2.553-0.554-3.664-1.773c-4.992-5.66-10.429-7.881-17.087-7.881
		c-15.425,0-21.085,15.314-21.085,30.185s5.66,30.183,21.085,30.183c6.658,0,12.095-2.219,17.087-7.879
		c1.111-1.221,2.331-1.774,3.664-1.774c2.774,0,5.549,2.44,5.549,5.437c0,1.332-0.556,2.887-1.998,4.328
		c-7.547,7.657-14.759,9.655-24.302,9.655c-20.197,0-31.959-15.536-31.959-39.949C714.593,38.55,726.354,23.015,746.552,23.015z"/>
	<path fill="#FFFFFF" d="M385.562,95.812c0,3.441-1.998,5.992-5.327,5.992c-3.552,0-5.327-2.551-5.327-5.992V29.452
		c0-2.943,2.387-5.327,5.327-5.327s5.327,2.384,5.327,5.327V95.812z"/>
	<path fill="#FFFFFF" d="M189.068,23.817c3.172,0,5.522,1.841,5.522,4.908c0,3.271-2.351,4.906-5.522,4.906H136.69
		c-2.713,0-4.91-2.197-4.91-4.906c0-2.711,2.197-4.908,4.91-4.908H189.068z"/>
	<path fill="#FFFFFF" d="M690.979,91.989c3.17,0,5.523,1.84,5.523,4.906c0,3.273-2.354,4.908-5.523,4.908h-35.732
		c-2.713,0-4.909-2.196-4.909-4.908c0-2.711,2.196-4.906,4.909-4.906H690.979z"/>
	<path fill="#FFFFFF" d="M690.979,24.125c3.17,0,5.523,1.839,5.523,4.907c0,3.271-2.354,4.907-5.523,4.907h-35.732
		c-2.713,0-4.909-2.196-4.909-4.907c0-2.709,2.196-4.907,4.909-4.907H690.979z"/>
	<path fill="#FFFFFF" d="M104.397,56.575c3.17,0,5.521,1.842,5.521,4.908c0,3.272-2.351,4.91-5.521,4.91H89.739
		c-2.709,0-4.906-2.201-4.906-4.91c0-2.71,2.197-4.908,4.906-4.908H104.397z"/>
	<path fill="#FFFFFF" d="M115.217,91H79V33h32.403c3.172,0,5.523-1.228,5.523-4.499c0-3.067-2.352-4.501-5.523-4.501H73.601
		c-2.711,0-4.906,1.979-4.906,4.689c0,0.072,0.065,67.42,0.065,67.532c0,2.71,2.13,4.778,4.843,4.778h41.614
		c3.168,0,5.521-1.729,5.521-5C120.737,92.932,118.385,91,115.217,91z"/>
	<path fill="#FFFFFF" d="M630.942,92H596V29.452c0-2.943-2.059-5.327-4.998-5.327c-2.943,0-5.002,2.384-5.002,5.327
		c0,0,0,67.113,0,67.541c0,2.712,1.726,5.007,4.436,5.007h40.507c3.171,0,5.521-1.729,5.521-5C636.464,93.933,634.113,92,630.942,92
		z"/>
	<path fill="#FFFFFF" d="M523.604,95.812c0,3.441-1.998,5.992-5.325,5.992c-3.551,0-5.328-2.551-5.328-5.992V29.452
		c0-2.943,2.386-5.327,5.328-5.327s5.325,2.384,5.325,5.327V95.812z"/>
	<path fill="#FFFFFF" d="M402.463,72.132c-2.733,0-5.444-0.002-5.444-0.002c-2.696,0-4.883-2.186-4.883-4.883
		c0-2.695,2.187-4.882,4.883-4.882l7.107,0.003c9.324,0,14.462-6.395,14.462-14.605c0-8.436-5.138-13.873-14.462-13.873h-5.869
		h-1.238c-2.696,0-4.883-2.186-4.883-4.883c0-2.695,2.187-4.882,4.883-4.882h6.442c16.314,0,25.781,9.765,25.781,23.638
		C429.242,58.303,427.348,72.132,402.463,72.132z"/>
	<path fill="#FFFFFF" d="M6.38,101.635c-2.972,0-5.38-2.409-5.38-5.381V29.247c0-2.974,2.408-5.381,5.38-5.381
		c2.973,0,5.382,2.407,5.382,5.381v67.007C11.762,99.226,9.353,101.635,6.38,101.635z"/>
	<path fill="#FFFFFF" d="M27.28,70.806c-2.818,0-4.758-0.316-4.963-0.352c-2.931-0.502-4.898-3.284-4.396-6.215
		c0.502-2.928,3.285-4.896,6.211-4.396c2.432,0.396,9.717,0.641,13.943-2.957c2.64-2.244,3.924-5.766,3.924-10.763
		c0-3.309-0.955-5.792-2.924-7.591c-4.305-3.939-12.753-4.158-15.373-3.926c-2.959,0.264-5.574-1.922-5.838-4.882
		c-0.263-2.961,1.924-5.575,4.883-5.839c1.518-0.135,15.068-1.096,23.596,6.705c4.199,3.842,6.418,9.213,6.418,15.532
		c0,8.267-2.617,14.666-7.777,19.019C39.349,69.894,32.056,70.806,27.28,70.806z"/>
	<path fill="#FFFFFF" d="M49.37,101.636c-1.784,0-3.528-0.889-4.553-2.507L34.323,82.523c-1.588-2.513-0.839-5.837,1.674-7.425
		c2.512-1.588,5.836-0.838,7.424,1.675l10.494,16.605c1.587,2.511,0.838,5.837-1.674,7.423
		C51.351,101.365,50.353,101.636,49.37,101.636z"/>
</g>
</svg>
