<?xml version="1.0" encoding="UTF-8" standalone="no"?>
<svg width="24px" height="24px" viewBox="0 0 24 24" version="1.1" xmlns="http://www.w3.org/2000/svg" xmlns:xlink="http://www.w3.org/1999/xlink" xmlns:sketch="http://www.bohemiancoding.com/sketch/ns">
    <!-- Generator: Sketch 3.3.2 (12043) - http://www.bohemiancoding.com/sketch -->
    <title>Imported Layers</title>
    <desc>Created with Sketch.</desc>
    <defs></defs>
    <g id="Codeando-México-Landing" stroke="none" stroke-width="1" fill-rule="evenodd" sketch:type="MSPage">
        <g id="Retos" sketch:type="MSArtboardGroup" transform="translate(-759.000000, -789.000000)">
            <path d="M766.279869,793.672655 L766.279869,790.683462 C766.279869,789.936568 766.118869,789.786866 765.383272,789.786866 L764.187676,789.775164 C763.476693,789.775164 763.291079,789.942217 763.291079,790.672164 L763.291079,793.660953 C763.291079,794.39655 763.440377,794.55755 764.187676,794.55755 L765.383272,794.55755 C766.13057,794.55755 766.279869,794.408252 766.279869,793.672655 L766.279869,793.672655 Z M778.235833,793.672655 L778.235833,790.683462 C778.235833,789.936568 778.074833,789.786866 777.339237,789.786866 L776.14364,789.775164 C775.432255,789.775164 775.24664,789.942217 775.24664,790.672164 L775.24664,793.660953 C775.24664,794.39655 775.396342,794.55755 776.14364,794.55755 L777.339237,794.55755 C778.086132,794.55755 778.235833,794.408252 778.235833,793.672655 L778.235833,793.672655 Z M767.475465,802.041831 L767.475465,800.846234 C767.475465,800.098936 767.314465,799.949234 766.578869,799.949234 L765.383272,799.937532 C764.67229,799.937532 764.486676,800.104989 764.486676,800.834532 L764.486676,802.030129 C764.486676,802.765725 764.635974,802.926725 765.383272,802.926725 L766.578869,802.926725 C767.326167,802.926725 767.475465,802.777024 767.475465,802.041831 L767.475465,802.041831 Z M772.257851,802.041831 L772.257851,800.846234 C772.257851,800.098936 772.096851,799.949234 771.361255,799.949234 L770.165658,799.937532 C769.454676,799.937532 769.269062,800.104989 769.269062,800.834532 L769.269062,802.030129 C769.269062,802.765725 769.41836,802.926725 770.165658,802.926725 L771.361255,802.926725 C772.108553,802.926725 772.257851,802.777024 772.257851,802.041831 L772.257851,802.041831 Z M777.040237,802.041831 L777.040237,800.846234 C777.040237,800.098936 776.879237,799.949234 776.14364,799.949234 L774.948044,799.937532 C774.236658,799.937532 774.051044,800.104989 774.051044,800.834532 L774.051044,802.030129 C774.051044,802.765725 774.200746,802.926725 774.948044,802.926725 L776.14364,802.926725 C776.890535,802.926725 777.040237,802.777024 777.040237,802.041831 L777.040237,802.041831 Z M767.475465,806.823813 L767.475465,805.628217 C767.475465,804.881322 767.314465,804.73162 766.578869,804.73162 L765.383272,804.719918 C764.67229,804.719918 764.486676,804.886971 764.486676,805.616918 L764.486676,806.812111 C764.486676,807.547708 764.635974,807.709111 765.383272,807.709111 L766.578869,807.709111 C767.326167,807.709111 767.475465,807.55941 767.475465,806.823813 L767.475465,806.823813 Z M772.257851,806.823813 L772.257851,805.628217 C772.257851,804.881322 772.096851,804.73162 771.361255,804.73162 L770.165658,804.719918 C769.454676,804.719918 769.269062,804.886971 769.269062,805.616918 L769.269062,806.812111 C769.269062,807.547708 769.41836,807.709111 770.165658,807.709111 L771.361255,807.709111 C772.108553,807.709111 772.257851,807.55941 772.257851,806.823813 L772.257851,806.823813 Z M777.040237,806.823813 L777.040237,805.628217 C777.040237,804.881322 776.879237,804.73162 776.14364,804.73162 L774.948044,804.719918 C774.236658,804.719918 774.051044,804.886971 774.051044,805.616918 L774.051044,806.812111 C774.051044,807.547708 774.200746,807.709111 774.948044,807.709111 L776.14364,807.709111 C776.890535,807.709111 777.040237,807.55941 777.040237,806.823813 L777.040237,806.823813 Z M760.899886,812.491497 L780.627026,812.491497 C782.065132,812.491497 782.401658,812.201778 782.420219,810.697901 L782.420219,793.361953 C782.420219,791.957339 782.193044,791.56876 780.627026,791.56876 L779.43143,791.56876 L779.43143,794.868252 C779.43143,795.603848 778.684132,795.753146 777.936833,795.753146 L774.948044,795.753146 C774.200746,795.753146 774.051044,795.592146 774.051044,794.85655 L774.051044,791.56876 L767.475465,791.56876 L767.475465,794.868252 C767.475465,795.603848 767.326167,795.753146 766.578869,795.753146 L762.992079,795.753146 C762.244781,795.753146 762.095483,795.592146 762.095483,794.85655 L762.095483,791.56876 L760.899886,791.56876 C759.357676,791.56876 759.10629,791.903673 759.10629,793.361953 L759.10629,810.697901 C759.10064,812.150129 759.461377,812.491497 760.899886,812.491497 L760.899886,812.491497 Z M762.095483,797.546743 L779.43143,797.546743 L779.43143,809.502708 L762.095483,809.502708 L762.095483,797.546743 Z" id="Imported-Layers" sketch:type="MSShapeGroup"></path>
        </g>
    </g>
</svg>