<?xml version="1.0" encoding="UTF-8" standalone="no"?>
<svg width="22px" height="24px" viewBox="0 0 22 24" version="1.1" xmlns="http://www.w3.org/2000/svg" xmlns:xlink="http://www.w3.org/1999/xlink" xmlns:sketch="http://www.bohemiancoding.com/sketch/ns">
    <!-- Generator: Sketch 3.3.2 (12043) - http://www.bohemiancoding.com/sketch -->
    <title>Imported Layers</title>
    <desc>Created with Sketch.</desc>
    <defs></defs>
    <g id="Codeando-México-Landing" stroke="none" stroke-width="1" fill="none" fill-rule="evenodd" sketch:type="MSPage">
        <g id="Retos" sketch:type="MSArtboardGroup" transform="translate(-688.000000, -1271.000000)" fill="#93BB3B">
            <g id="Imported-Layers" sketch:type="MSLayerGroup" transform="translate(688.053112, 1271.183487)">
                <path d="M18.0601493,12.0348358 C16.447403,14.2246418 13.8700299,15.665403 10.9397612,15.665403 C8.11144776,15.665403 5.62058209,14.3152687 3.99685075,12.2528209 L0.300373134,19.1528209 L4.96902985,18.8991343 L7.34420896,22.923791 L11.0873731,15.939 L14.8298507,22.923791 L17.2050299,18.8991343 L21.8733433,19.1528209 L18.0601493,12.0348358" id="Fill-1" sketch:type="MSShapeGroup"></path>
                <path d="M10.9397612,13.5514627 C14.6702239,13.5514627 17.6959254,10.5250746 17.6959254,6.79564179 C17.6959254,3.06380597 14.6702239,0.0381044776 10.9397612,0.0381044776 C7.20861194,0.0381044776 4.18256716,3.06380597 4.18256716,6.79529851 C4.18256716,10.5250746 7.20861194,13.5514627 10.9397612,13.5514627" id="Fill-2" sketch:type="MSShapeGroup"></path>
            </g>
        </g>
    </g>
</svg>