<?xml version="1.0" encoding="UTF-8" standalone="no"?>
<svg width="23px" height="20px" viewBox="0 0 23 20" version="1.1" xmlns="http://www.w3.org/2000/svg" xmlns:xlink="http://www.w3.org/1999/xlink" xmlns:sketch="http://www.bohemiancoding.com/sketch/ns">
    <!-- Generator: Sketch 3.3.2 (12043) - http://www.bohemiancoding.com/sketch -->
    <title>Shape</title>
    <desc>Created with Sketch.</desc>
    <defs></defs>
    <g id="Codeando-México-Landing" stroke="none" stroke-width="1" fill="none" fill-rule="evenodd" sketch:type="MSPage">
        <g id="Perfil-de-Reto" sketch:type="MSArtboardGroup" transform="translate(-371.000000, -902.000000)" fill="#93BB3B">
            <path d="M393.319815,902.041324 C392.895224,902.216156 371.690637,909.683966 371.291022,909.833822 C370.941359,909.958702 370.866431,910.258413 371.291022,910.433245 C371.790541,910.633053 376.036454,912.331418 376.036454,912.331418 L376.036454,912.331418 L378.858737,913.455336 C378.858737,913.455336 392.395705,903.514905 392.570537,903.390026 C392.745368,903.265146 381.656044,914.529302 381.656044,914.529302 L383.204553,915.303557 C383.204553,915.303557 389.023951,918.425551 389.423566,918.650335 C389.798206,918.850142 390.247773,918.675311 390.372653,918.225743 C390.497532,917.701248 393.919238,902.915482 393.994166,902.590795 C394.044118,902.166204 393.769383,901.891468 393.319815,902.041324 L393.319815,902.041324 Z M378.683905,921.172906 C378.683905,921.472618 378.858737,921.572522 379.108496,921.347738 C379.433184,921.073002 383.65412,916.727186 383.65412,916.727186 L378.733857,914.529302 L378.683905,921.172906 L378.683905,921.172906 Z" id="Shape" sketch:type="MSShapeGroup"></path>
        </g>
    </g>
</svg>